<?xml version="1.0" encoding="utf-8"?>
<!-- Generator: Adobe Illustrator 18.0.0, SVG Export Plug-In . SVG Version: 6.00 Build 0)  -->
<!DOCTYPE svg PUBLIC "-//W3C//DTD SVG 1.1//EN" "http://www.w3.org/Graphics/SVG/1.1/DTD/svg11.dtd">
<svg version="1.1" xmlns="http://www.w3.org/2000/svg" xmlns:xlink="http://www.w3.org/1999/xlink" x="0px" y="0px"
	 viewBox="0 0 483.5 483.4" enable-background="new 0 0 483.5 483.4" xml:space="preserve">
<g id="hörlurar">
	<g>
		<path fill="#231F20" d="M268.8,221.6c-5-0.6-6.7-7.8-4.9-11.1c1.8-3.3,2.3-2.7-1.3-9.5c-2.3-4.4-3.2-5.8-3.6-6.3
			c-2.8,0.4-4.5,0.7-4.9,0.8c-1,0.3-5.5,1.7-9.2,2.2v1.9c1.7,1,3.1,2.9,3.1,6.1c0,0.2,0.6,8.3,4.6,16.2c4.7,0.4,9.3,1.7,11.2,4.8
			c1.2,1.9,1.2,4.3,0.1,7.1c2.7,1.4,5.9,2.4,9.7,2.7c0.8,0.1,1.7,0.1,2.5,0.1h0c1.5,0,2.9-0.1,4.1-0.4l-5.8-10.2
			C274.5,226,273.8,222.2,268.8,221.6z"/>
		<path fill="#231F20" d="M277.5,193.2c-1.3,0-2.6,0-3.8,0.1c-2.6,0.2-5,0.3-7.1,0.5l5.7,11.8c0,0,0.9,3.5-0.8,4.6
			c-1.6,1-1.4,5.9,1.7,7c3.1,1,3.3-0.9,6.7,5.4c2.5,4.8,4.9,9.5,5.8,11.5c5.5-3.4,7.4-10.1,8-17.6l-14.1-23.3
			C278.9,193.2,278.2,193.2,277.5,193.2z"/>
		<path fill="#231F20" d="M185.8,195.8c-0.7,0.2-1.3,0.3-1.6,0.3c-0.2,0.1-0.5,0.4-0.6,0.6c0,0,0.1,0,0.1,0.1
			c4.8,2.8,5.9,6.2,6.4,12.5c0.1,0.7,0.1,1.5,0.1,2.5c0,0.6,0,1.1,0.1,1.6l11.6-20.2C194.8,193.8,188.7,195.2,185.8,195.8z"/>
		<path fill="#231F20" d="M300.1,196.1c-0.3-0.1-0.9-0.2-1.6-0.3c-2.8-0.6-8.6-1.9-15.5-2.4l11,19c0-0.2,0-0.4,0-0.6
			c0-1,0.1-1.9,0.1-2.5c0.5-6.3,1.6-9.8,6.4-12.5c0,0,0.1,0,0.1-0.1C300.5,196.5,300.3,196.2,300.1,196.1z"/>
		<path fill="#231F20" d="M242,204.5c-0.1,0.1-0.2,0.5-0.2,1.2c0,2-0.8,8.8-3.9,16c1.9,0.1,3.4,0.2,4,0.3c0.6-0.1,2.3-0.2,4.4-0.3
			c-3.1-7.2-3.9-14-3.9-16c0-0.7-0.1-1.1-0.2-1.2l-0.1,0L242,204.5z"/>
		<path fill="#231F20" d="M248.1,223.7c-3,0-5.4,0.2-6,0.3l-0.1,0l-0.1,0c-0.7-0.1-3-0.3-6-0.3c-7.4,0-12.4,1.4-14,4
			c-0.9,1.5-0.8,3.6,0.5,6.2c1.4,2.8,3,5,4.7,6.7c0,0,0.1,0.1,0.1,0.1c0.5,0.3,1,0.7,1.5,1c0.5,0.3,1.1,0.7,1.6,1
			c0.3,0.2,0.5,0.3,0.8,0.4c0-0.1,0.1-0.1,0.1-0.2c0.1-0.3,0.2-0.5,0.4-0.8c0.1-0.3,0.2-0.6,0.2-0.9c0-0.3,0.1-0.6,0.1-1l0-0.5
			l-0.1-0.5c0-0.3-0.2-0.6-0.2-0.9c-0.1-0.3-0.2-0.6-0.4-0.8c-0.1-0.2-0.3-0.5-0.4-0.7c-0.5-0.8-1-1.3-1-1.3l0.1-0.2
			c0,0,0.1,0,0.2,0c0.1,0,0.3,0,0.4,0.1c0.4,0.1,0.8,0.3,1.3,0.6c0.3,0.2,0.5,0.4,0.7,0.6c0.3,0.2,0.5,0.6,0.7,0.9
			c0.2,0.4,0.4,0.7,0.5,1.2c0,0.2,0.1,0.4,0.1,0.6l0,0.7c0,0.5-0.1,0.9-0.2,1.3c-0.1,0.4-0.3,0.8-0.5,1.2c-0.2,0.3-0.5,0.6-0.7,0.9
			c0,0-0.1,0.1-0.1,0.1c0.5,0.3,1,0.5,1.5,0.7c0.6,0.3,1.3,0.5,1.9,0.8c0.3,0.1,0.7,0.2,1,0.3c0.3,0.1,0.7,0.2,1,0.3
			c1,0.3,2,0.4,3,0.5c0.5,0,0.8,0,1,0l0.1,0l0.1,0c0.2,0,0.5,0,1,0c0.2,0,0.3,0,0.5,0c0.1,0,0.3,0,0.4,0c0.7,0,1.4-0.2,2-0.3
			c0.3-0.1,0.7-0.2,1-0.3c0.3-0.1,0.7-0.2,1-0.3c0.6-0.3,1.3-0.5,1.9-0.8c0.5-0.3,1.1-0.5,1.6-0.8c-0.1-0.1-0.1-0.1-0.2-0.2
			c-0.2-0.3-0.5-0.6-0.7-0.9c-0.2-0.4-0.4-0.7-0.5-1.2c-0.1-0.4-0.2-0.9-0.2-1.3l0-0.7c0-0.2,0.1-0.4,0.1-0.6
			c0.1-0.4,0.3-0.8,0.5-1.2c0.2-0.3,0.4-0.7,0.7-0.9c0.2-0.3,0.5-0.5,0.7-0.6c0.5-0.4,1-0.5,1.3-0.6c0.2-0.1,0.3-0.1,0.4-0.1
			c0.1,0,0.2,0,0.2,0l0.1,0.2c0,0-0.5,0.4-1,1.3c-0.1,0.2-0.3,0.4-0.4,0.7c-0.1,0.2-0.2,0.5-0.4,0.8c-0.1,0.3-0.2,0.6-0.2,0.9
			l-0.1,0.5l0,0.5c0,0.3,0.1,0.6,0.1,1c0.1,0.3,0.2,0.6,0.2,0.9c0.1,0.3,0.3,0.5,0.4,0.8c0,0.1,0.1,0.1,0.1,0.2
			c0.2-0.1,0.5-0.3,0.7-0.4c1.1-0.8,2.2-1.4,3.1-2.1c0.2-0.1,0.4-0.3,0.6-0.4c1.6-1.6,3.1-3.7,4.4-6.4c1.3-2.6,1.5-4.7,0.5-6.2
			C260.5,225.1,255.5,223.7,248.1,223.7z"/>
		<path fill="#231F20" d="M206.8,187.7c1.4,0,2.8,0,4.2,0.1c13.1,0.8,20.2,2.2,20.5,2.3l0.3,0.1c2,0.6,7.7,2.3,10.5,2.3
			c2.8,0,8.5-1.6,10.5-2.3l0.3-0.1c0.3-0.1,7.4-1.5,20.5-2.3c1.3-0.1,2.7-0.1,4.2-0.1c9.8,0,18.5,2,22.2,2.8c0.2,0,0.4,0.1,0.6,0.1
			c-5.9-10.6-20.7-24.4-58-24.4c-37.2,0-52,13.7-57.9,24.3c0.1,0,0.2,0,0.2-0.1C188.3,189.6,197,187.7,206.8,187.7z"/>
		<path fill="#231F20" d="M236.3,205.7c0-3.1,1.3-5.1,3.1-6.1v-1.9c-3.8-0.6-8.2-1.9-9.2-2.2c-0.4-0.1-1.9-0.4-4.3-0.7
			c-0.4,0.6-1.3,2.1-3.5,6.2c-3.5,6.8-3.1,6.1-1.3,9.5c1.8,3.3,0.1,10.5-4.9,11.1c-5,0.6-5.7,4.4-5.7,4.4l-5.8,10.3
			c1.1,0.2,2.3,0.3,3.5,0.3c0.8,0,1.6,0,2.5-0.1c3.6-0.3,6.7-1.2,9.4-2.6c-1.2-2.8-1.2-5.3,0-7.2c2-3.2,6.8-4.4,11.6-4.8
			C235.8,214,236.3,205.8,236.3,205.7z"/>
		<path fill="#231F20" d="M211.8,217.2c3.1-1,3.3-5.9,1.7-7c-1.6-1-0.8-4.6-0.8-4.6l5.6-11.7c-2.3-0.2-4.9-0.4-7.7-0.6
			c-1.2-0.1-2.5-0.1-3.8-0.1c-0.5,0-1,0-1.4,0l-14.7,24.3c0.8,7.4,2.8,13.8,8.5,17c0.9-1.8,3.3-6.8,6-11.8
			C208.4,216.3,208.6,218.2,211.8,217.2z"/>
	</g>
</g>
<g id="skog1">
	<polygon fill="#231F20" points="100.8,312.9 87.1,261.8 74.1,312.9 	"/>
	<path fill="#231F20" d="M68.2,353.3c0.1,0.1,0.3,0.2,0.4,0.4c4.2,4.3,8.1,8.8,9.8,14.7c0.1,0.5,0.2,0.9,0.2,1.3h35.5l-27.2-76.5
		l-19.7,58.5C67.6,352.1,67.9,352.7,68.2,353.3z"/>
	<path fill="#231F20" d="M87.4,332.4L72.3,367c0.3,0.2,0.5,0.4,0.8,0.6c4.5,4.2,8.2,9.2,11.9,14.1c2.9-2.1,8.1-0.8,8.1,3.9
		c0,0,0,0.1,0,0.1c2.5,1.1,4.5,2.8,6.2,4.9c1.1,0,2.3,0.4,3.3,1.4c2.3,2.2,3.8,4.8,5.3,7.5c4.2,1.6,6.3,5.1,7.9,9.3h6.7L87.4,332.4z
		"/>
	<path fill="#231F20" d="M88.6,332.4L75,362.1c0.2,0.2,0.4,0.4,0.6,0.6c5.1,5.3,8.8,11.8,14.2,16.7c4.6,4.2,9.5,7.7,12.5,13.3
		c0.1,0.1,0.1,0.3,0.2,0.4c1.4-1.1,2.8-2.2,4.1-3.4c1.1-2.4,2.3-4.9,3.7-7.1L88.6,332.4z"/>
	<polygon fill="#231F20" points="147.8,370 136.3,318.9 125.4,370 	"/>
	<path fill="#231F20" d="M120.1,406.9c6.2,4.7,12.5,9.2,18.7,13.8c6.4,1,12.8,1.9,19.2,3l-21.9-73.5L120.1,406.9
		C120.1,406.9,120.1,406.9,120.1,406.9z"/>
	<path fill="#231F20" d="M149.9,424.4l-13.4-34.9l-8.8,24C133.1,419.3,142,422.5,149.9,424.4z"/>
</g>
<g id="skog2">
	<polygon fill="#231F20" points="382.7,312.9 396.3,261.8 409.3,312.9 	"/>
	<path fill="#231F20" d="M416.3,354.7c0.2-0.4,0.4-0.7,0.6-0.9l-20.4-60.6l-27.2,76.5h36.9C409,364.4,413.6,359.6,416.3,354.7z"/>
	<path fill="#231F20" d="M369.3,406.9c1.3-0.4,2.6-0.8,3.9-1.2c0.3-0.3,0.6-0.6,0.9-0.8c6-4.5,10.9-9.7,17-12.7c0,0,0,0,0,0
		c6.7-8.1,14-15.7,20.5-23.9L396,332.4l-35,76.5h5.4C367,408,367.9,407.2,369.3,406.9z"/>
	<path fill="#231F20" d="M383.6,393.2c2-1.3,4.1-2.5,6.3-3.7c3.9-2.1,8.1-5.1,11.7-8.6c-0.8-1.1-1-2.5-0.7-4.1
		c1.3-5.6,5.5-9.2,10.5-8.8L395,332.4l-21.7,49.9C378.9,384,382.2,388.3,383.6,393.2z"/>
	<polygon fill="#231F20" points="335.7,370 347.1,318.9 358,370 	"/>
	<path fill="#231F20" d="M338.4,426.3c0.7-1.2,1.9-2.1,3.8-2.2c1.2-0.5,2.5-1,3.8-1.4c0.8-0.7,1.8-1.1,3.2-1.1c0.1,0,0.1,0,0.2,0
		c0.4-0.2,0.9-0.3,1.3-0.5c5.5-2.1,8.9-7.9,13.4-11.8l-16.8-59.2l-22.8,76.5h13.4C338,426.6,338.2,426.5,338.4,426.3z"/>
	<path fill="#231F20" d="M336.8,426.8c3.4-1.9,6.7-4,9.9-6.1c3-2,6.1-4.1,9.4-5.9l-9.2-25.3l-14.4,37.4
		C333.9,426.9,335.4,426.8,336.8,426.8z"/>
</g>
<g id="vit_ring">
	<g>
		<path fill="#231F20" d="M241.7,28.7c-117.5,0-213,95.6-213,213s95.6,213,213,213c117.5,0,213-95.6,213-213S359.2,28.7,241.7,28.7z
			 M241.7,442.7c-110.8,0-201-90.2-201-201c0-110.8,90.2-201,201-201c110.8,0,201,90.2,201,201C442.7,352.6,352.6,442.7,241.7,442.7
			z"/>
		<path fill="#231F20" d="M405.8,77.7c-43.8-43.8-102.1-68-164.1-68c-62,0-120.2,24.1-164.1,68c-43.8,43.8-68,102.1-68,164.1
			c0,62,24.1,120.2,68,164.1c43.8,43.8,102.1,68,164.1,68c62,0,120.2-24.1,164.1-68c43.8-43.8,68-102.1,68-164.1
			C473.7,179.8,449.6,121.5,405.8,77.7z M397.3,397.3c-41.6,41.6-96.8,64.4-155.6,64.4c-58.8,0-114-22.9-155.6-64.4
			c-41.6-41.6-64.4-96.8-64.4-155.6c0-58.8,22.9-114,64.4-155.6c41.6-41.6,96.8-64.4,155.6-64.4c58.8,0,114,22.9,155.6,64.4
			c41.6,41.6,64.4,96.8,64.4,155.6C461.7,300.5,438.9,355.7,397.3,397.3z"/>
	</g>
</g>
<g id="vit_ring_copy">
	<g>
		<path fill="#231F20" d="M235.9,483.4C235.9,483.4,235.8,483.4,235.9,483.4c-4.1-0.1-8.1-0.3-12.1-0.6c-1.4-0.1-2.4-1.3-2.3-2.7
			c0.1-1.4,1.3-2.4,2.7-2.3c3.9,0.3,7.9,0.5,11.8,0.6c1.4,0,2.5,1.2,2.4,2.6C238.3,482.3,237.2,483.4,235.9,483.4z M247.8,483.4
			c-1.4,0-2.5-1.1-2.5-2.4c0-1.4,1.1-2.5,2.4-2.6c3.9-0.1,7.9-0.3,11.8-0.6c1.4-0.1,2.6,0.9,2.7,2.3c0.1,1.4-0.9,2.6-2.3,2.7
			C255.9,483.1,251.9,483.3,247.8,483.4C247.8,483.4,247.8,483.4,247.8,483.4z M212.1,481.6c-0.1,0-0.2,0-0.3,0
			c-4-0.5-8-1.1-11.9-1.8c-1.4-0.2-2.3-1.5-2-2.9c0.2-1.4,1.5-2.3,2.9-2c3.9,0.7,7.8,1.3,11.7,1.7c1.4,0.2,2.3,1.4,2.2,2.8
			C214.4,480.7,213.4,481.6,212.1,481.6z M271.6,481.6c-1.2,0-2.3-0.9-2.5-2.2c-0.2-1.4,0.8-2.6,2.2-2.8c3.9-0.5,7.8-1.1,11.7-1.7
			c1.4-0.2,2.7,0.7,2.9,2c0.2,1.4-0.7,2.7-2,2.9c-3.9,0.7-7.9,1.3-11.9,1.8C271.8,481.6,271.7,481.6,271.6,481.6z M188.6,477.5
			c-0.2,0-0.4,0-0.6-0.1c-3.9-0.9-7.8-1.9-11.7-3c-1.3-0.4-2.1-1.8-1.7-3.1c0.4-1.3,1.8-2.1,3.1-1.7c3.8,1.1,7.6,2,11.4,2.9
			c1.3,0.3,2.2,1.6,1.9,3C190.8,476.8,189.8,477.5,188.6,477.5z M295.1,477.5c-1.1,0-2.2-0.8-2.4-1.9c-0.3-1.3,0.5-2.7,1.9-3
			c3.8-0.9,7.7-1.8,11.4-2.9c1.3-0.4,2.7,0.4,3.1,1.7c0.4,1.3-0.4,2.7-1.7,3.1c-3.8,1.1-7.8,2.1-11.7,3
			C295.4,477.5,295.2,477.5,295.1,477.5z M165.7,471.1c-0.3,0-0.5,0-0.8-0.1c-3.8-1.3-7.6-2.7-11.4-4.1c-1.3-0.5-1.9-2-1.4-3.2
			c0.5-1.3,2-1.9,3.2-1.4c3.6,1.4,7.4,2.8,11.1,4c1.3,0.4,2,1.9,1.6,3.2C167.7,470.4,166.7,471.1,165.7,471.1z M318,471
			c-1,0-2-0.7-2.4-1.7c-0.4-1.3,0.3-2.7,1.6-3.2c3.7-1.2,7.4-2.6,11.1-4c1.3-0.5,2.7,0.1,3.2,1.4c0.5,1.3-0.1,2.7-1.4,3.2
			c-3.7,1.5-7.5,2.9-11.3,4.1C318.6,471,318.3,471,318,471z M143.4,462.4c-0.3,0-0.7-0.1-1-0.2c-3.7-1.6-7.3-3.4-10.9-5.2
			c-1.2-0.6-1.7-2.1-1.1-3.4c0.6-1.2,2.1-1.7,3.4-1.1c3.5,1.8,7.1,3.5,10.6,5.1c1.3,0.6,1.8,2,1.2,3.3
			C145.3,461.8,144.4,462.4,143.4,462.4z M340.2,462.3c-1,0-1.9-0.5-2.3-1.5c-0.6-1.3,0-2.7,1.2-3.3c3.6-1.6,7.1-3.3,10.6-5.1
			c1.2-0.6,2.7-0.1,3.4,1.1c0.6,1.2,0.1,2.7-1.1,3.4c-3.6,1.8-7.2,3.6-10.8,5.2C340.9,462.3,340.5,462.3,340.2,462.3z M122.2,451.5
			c-0.4,0-0.9-0.1-1.2-0.3c-3.5-2-6.9-4.1-10.3-6.3c-1.2-0.7-1.5-2.3-0.7-3.5c0.8-1.2,2.3-1.5,3.5-0.7c3.3,2.1,6.7,4.2,10.1,6.2
			c1.2,0.7,1.6,2.2,0.9,3.4C123.9,451,123,451.5,122.2,451.5z M361.4,451.4c-0.9,0-1.7-0.4-2.2-1.2c-0.7-1.2-0.3-2.7,0.9-3.4
			c3.4-2,6.8-4,10.1-6.2c1.2-0.8,2.7-0.4,3.5,0.7c0.8,1.2,0.4,2.7-0.7,3.5c-3.4,2.2-6.8,4.3-10.3,6.3
			C362.2,451.3,361.8,451.4,361.4,451.4z M102.1,438.5c-0.5,0-1-0.2-1.5-0.5c-3.2-2.3-6.5-4.8-9.6-7.3c-1.1-0.9-1.3-2.4-0.4-3.5
			c0.9-1.1,2.4-1.3,3.5-0.4c3.1,2.4,6.2,4.8,9.4,7.1c1.1,0.8,1.4,2.4,0.6,3.5C103.7,438.2,102.9,438.5,102.1,438.5z M381.4,438.5
			c-0.8,0-1.5-0.4-2-1c-0.8-1.1-0.6-2.7,0.6-3.5c3.2-2.3,6.3-4.7,9.4-7.1c1.1-0.9,2.7-0.7,3.5,0.4c0.9,1.1,0.7,2.7-0.4,3.5
			c-3.1,2.5-6.4,4.9-9.6,7.3C382.4,438.4,381.9,438.5,381.4,438.5z M83.5,423.6c-0.6,0-1.2-0.2-1.7-0.6c-3-2.6-6-5.4-8.8-8.2
			c-1-1-1-2.5,0-3.5c1-1,2.5-1,3.5,0c2.8,2.7,5.7,5.4,8.7,8c1,0.9,1.1,2.5,0.2,3.5C84.9,423.4,84.2,423.6,83.5,423.6z M400,423.6
			c-0.7,0-1.4-0.3-1.9-0.8c-0.9-1-0.8-2.6,0.2-3.5c2.9-2.6,5.9-5.3,8.7-8c1-1,2.6-0.9,3.5,0c1,1,0.9,2.6,0,3.5
			c-2.9,2.8-5.8,5.5-8.8,8.2C401.2,423.4,400.6,423.6,400,423.6z M66.4,407c-0.7,0-1.3-0.3-1.8-0.8c-2.7-2.9-5.4-6-8-9
			c-0.9-1.1-0.8-2.6,0.3-3.5c1.1-0.9,2.6-0.8,3.5,0.3c2.5,3,5.1,6,7.8,8.8c0.9,1,0.9,2.6-0.1,3.5C67.6,406.8,67,407,66.4,407z
			 M417.1,407c-0.6,0-1.2-0.2-1.7-0.7c-1-0.9-1.1-2.5-0.1-3.5c2.7-2.9,5.3-5.8,7.8-8.8c0.9-1.1,2.5-1.2,3.5-0.3
			c1.1,0.9,1.2,2.5,0.3,3.5c-2.6,3.1-5.3,6.1-8,9C418.4,406.7,417.7,407,417.1,407z M51.1,388.8c-0.8,0-1.5-0.3-2-1
			c-2.4-3.2-4.8-6.5-7-9.8c-0.8-1.1-0.5-2.7,0.7-3.5c1.1-0.8,2.7-0.5,3.5,0.7c2.2,3.2,4.5,6.5,6.9,9.6c0.8,1.1,0.6,2.7-0.5,3.5
			C52.1,388.6,51.6,388.8,51.1,388.8z M432.4,388.7c-0.5,0-1.1-0.2-1.5-0.5c-1.1-0.8-1.3-2.4-0.5-3.5c2.4-3.1,4.7-6.3,6.9-9.6
			c0.8-1.1,2.3-1.4,3.5-0.7c1.1,0.8,1.4,2.3,0.7,3.5c-2.3,3.3-4.6,6.6-7,9.8C433.9,388.4,433.2,388.7,432.4,388.7z M37.6,369.1
			c-0.8,0-1.7-0.4-2.1-1.2c-2.1-3.4-4.1-6.9-6-10.4c-0.7-1.2-0.2-2.7,1-3.4c1.2-0.7,2.7-0.2,3.4,1c1.9,3.4,3.9,6.9,5.9,10.2
			c0.7,1.2,0.4,2.7-0.8,3.4C38.5,369,38.1,369.1,37.6,369.1z M445.9,369c-0.4,0-0.9-0.1-1.3-0.4c-1.2-0.7-1.5-2.3-0.8-3.4
			c2.1-3.4,4-6.8,5.9-10.2c0.7-1.2,2.2-1.7,3.4-1c1.2,0.7,1.7,2.2,1,3.4c-1.9,3.5-3.9,7-6,10.4C447.5,368.6,446.7,369,445.9,369z
			 M26.2,348.2c-0.9,0-1.8-0.5-2.3-1.4c-1.7-3.6-3.4-7.3-5-11c-0.5-1.3,0.1-2.7,1.3-3.3c1.3-0.5,2.7,0.1,3.3,1.3
			c1.5,3.6,3.2,7.2,4.9,10.7c0.6,1.2,0.1,2.7-1.2,3.3C26.9,348.1,26.6,348.2,26.2,348.2z M457.3,348.1c-0.4,0-0.7-0.1-1.1-0.2
			c-1.2-0.6-1.8-2.1-1.2-3.3c1.7-3.5,3.3-7.2,4.9-10.8c0.5-1.3,2-1.9,3.3-1.3c1.3,0.5,1.9,2,1.3,3.3c-1.6,3.7-3.2,7.4-5,11
			C459.1,347.6,458.2,348.1,457.3,348.1z M16.9,326.3c-1,0-2-0.6-2.3-1.6c-1.4-3.8-2.7-7.6-3.8-11.4c-0.4-1.3,0.3-2.7,1.7-3.1
			c1.3-0.4,2.7,0.3,3.1,1.7c1.2,3.7,2.4,7.5,3.8,11.2c0.5,1.3-0.2,2.7-1.5,3.2C17.5,326.2,17.2,326.3,16.9,326.3z M466.6,326.1
			c-0.3,0-0.6,0-0.9-0.2c-1.3-0.5-2-1.9-1.5-3.2c1.3-3.7,2.6-7.5,3.8-11.2c0.4-1.3,1.8-2.1,3.1-1.7c1.3,0.4,2.1,1.8,1.7,3.1
			c-1.2,3.8-2.5,7.7-3.8,11.5C468.6,325.4,467.6,326.1,466.6,326.1z M9.9,303.5c-1.1,0-2.1-0.8-2.4-1.9c-1-3.9-1.9-7.8-2.7-11.7
			c-0.3-1.4,0.6-2.7,2-2.9c1.4-0.3,2.7,0.6,2.9,2c0.8,3.8,1.7,7.7,2.6,11.5c0.3,1.3-0.5,2.7-1.8,3C10.3,303.5,10.1,303.5,9.9,303.5z
			 M473.6,303.2c-0.2,0-0.4,0-0.6-0.1c-1.3-0.3-2.1-1.7-1.8-3c1-3.8,1.8-7.7,2.6-11.5c0.3-1.4,1.6-2.2,2.9-2c1.4,0.3,2.2,1.6,2,2.9
			c-0.8,3.9-1.7,7.9-2.7,11.8C475.8,302.5,474.7,303.2,473.6,303.2z M5.2,280.1c-1.2,0-2.3-0.9-2.5-2.1c-0.6-4-1.1-8-1.5-12
			c-0.1-1.4,0.9-2.6,2.2-2.7c1.4-0.1,2.6,0.9,2.7,2.2c0.4,3.9,0.9,7.8,1.5,11.7c0.2,1.4-0.7,2.6-2.1,2.8
			C5.4,280.1,5.3,280.1,5.2,280.1z M478.3,279.9c-0.1,0-0.2,0-0.4,0c-1.4-0.2-2.3-1.5-2.1-2.8c0.6-3.9,1.1-7.8,1.5-11.7
			c0.1-1.4,1.3-2.4,2.7-2.2c1.4,0.1,2.4,1.4,2.2,2.7c-0.4,4-0.9,8-1.5,12C480.6,279,479.5,279.9,478.3,279.9z M2.8,256.4
			c-1.3,0-2.4-1-2.5-2.4c-0.2-4-0.3-8-0.3-12c0-1.4,1.1-2.5,2.5-2.5c0,0,0,0,0,0c1.4,0,2.5,1.1,2.5,2.5c0,3.9,0.1,7.9,0.3,11.8
			c0.1,1.4-1,2.6-2.4,2.6C2.9,256.4,2.8,256.4,2.8,256.4z M480.7,256.1c0,0-0.1,0-0.1,0c-1.4-0.1-2.4-1.2-2.4-2.6
			c0.2-3.9,0.3-7.9,0.3-11.8v-0.5c0-1.4,1.1-2.5,2.5-2.5c1.4,0,2.5,1.1,2.5,2.5v0.5c0,4-0.1,8.1-0.3,12
			C483.1,255.1,482,256.1,480.7,256.1z M2.8,232.6c0,0-0.1,0-0.1,0c-1.4-0.1-2.4-1.2-2.4-2.6c0.2-4,0.5-8,0.9-12
			c0.1-1.4,1.4-2.4,2.7-2.2c1.4,0.1,2.4,1.4,2.2,2.7c-0.4,3.9-0.7,7.9-0.9,11.8C5.2,231.5,4.1,232.6,2.8,232.6z M480.6,231.8
			c-1.3,0-2.4-1-2.5-2.4c-0.2-3.9-0.5-7.9-0.9-11.8c-0.1-1.4,0.9-2.6,2.2-2.7c1.4-0.1,2.6,0.9,2.7,2.2c0.4,4,0.7,8,0.9,12
			c0.1,1.4-1,2.6-2.4,2.6C480.7,231.8,480.7,231.8,480.6,231.8z M5.1,208.8c-0.1,0-0.2,0-0.4,0c-1.4-0.2-2.3-1.5-2.1-2.8
			c0.6-4,1.3-7.9,2.1-11.9c0.3-1.4,1.6-2.2,2.9-2c1.4,0.3,2.2,1.6,2,2.9c-0.8,3.8-1.4,7.8-2,11.6C7.4,207.9,6.3,208.8,5.1,208.8z
			 M478.2,208.1c-1.2,0-2.3-0.9-2.5-2.1c-0.6-3.9-1.3-7.8-2.1-11.6c-0.3-1.4,0.6-2.7,2-2.9c1.4-0.3,2.7,0.6,2.9,2
			c0.8,3.9,1.5,7.9,2.1,11.9c0.2,1.4-0.7,2.6-2.1,2.8C478.5,208.1,478.4,208.1,478.2,208.1z M9.8,185.5c-0.2,0-0.4,0-0.6-0.1
			c-1.3-0.3-2.1-1.7-1.8-3c1-3.9,2.1-7.8,3.2-11.6c0.4-1.3,1.8-2.1,3.1-1.7c1.3,0.4,2.1,1.8,1.7,3.1c-1.1,3.7-2.2,7.6-3.2,11.4
			C11.9,184.7,10.9,185.5,9.8,185.5z M473.5,184.7c-1.1,0-2.1-0.8-2.4-1.9c-1-3.8-2.1-7.6-3.2-11.4c-0.4-1.3,0.3-2.7,1.6-3.1
			c1.3-0.4,2.7,0.3,3.1,1.6c1.2,3.8,2.3,7.7,3.3,11.6c0.3,1.3-0.5,2.7-1.8,3C473.9,184.7,473.7,184.7,473.5,184.7z M16.8,162.6
			c-0.3,0-0.6,0-0.9-0.2c-1.3-0.5-2-1.9-1.5-3.2c1.4-3.8,2.8-7.5,4.4-11.2c0.5-1.3,2-1.9,3.3-1.3c1.3,0.5,1.9,2,1.3,3.3
			c-1.5,3.6-3,7.3-4.3,11C18.8,162,17.8,162.6,16.8,162.6z M466.4,161.9c-1,0-2-0.6-2.3-1.6c-1.3-3.7-2.8-7.4-4.3-10.9
			c-0.5-1.3,0.1-2.7,1.3-3.3c1.3-0.5,2.7,0.1,3.3,1.3c1.6,3.7,3,7.4,4.4,11.2c0.5,1.3-0.2,2.7-1.5,3.2
			C467,161.9,466.7,161.9,466.4,161.9z M26,140.6c-0.4,0-0.7-0.1-1.1-0.2c-1.2-0.6-1.8-2.1-1.2-3.3c1.7-3.6,3.6-7.2,5.5-10.7
			c0.7-1.2,2.2-1.7,3.4-1c1.2,0.7,1.7,2.2,1,3.4c-1.9,3.4-3.7,7-5.4,10.5C27.9,140.1,27,140.6,26,140.6z M457.1,140
			c-0.9,0-1.8-0.5-2.3-1.4c-1.7-3.5-3.5-7-5.4-10.5c-0.7-1.2-0.2-2.7,1-3.4c1.2-0.7,2.7-0.2,3.4,1c1.9,3.5,3.8,7.1,5.5,10.7
			c0.6,1.2,0.1,2.7-1.2,3.3C457.9,140,457.5,140,457.1,140z M37.5,119.7c-0.4,0-0.9-0.1-1.3-0.4c-1.2-0.7-1.5-2.3-0.8-3.4
			c2.1-3.4,4.3-6.8,6.5-10.1c0.8-1.1,2.3-1.4,3.5-0.7c1.1,0.8,1.4,2.3,0.7,3.5c-2.2,3.2-4.4,6.6-6.4,9.9
			C39.1,119.2,38.3,119.7,37.5,119.7z M445.7,119.2c-0.8,0-1.7-0.4-2.1-1.2c-2-3.3-4.2-6.7-6.4-9.9c-0.8-1.1-0.5-2.7,0.6-3.5
			c1.1-0.8,2.7-0.5,3.5,0.6c2.3,3.3,4.5,6.7,6.6,10.1c0.7,1.2,0.4,2.7-0.8,3.4C446.6,119,446.1,119.2,445.7,119.2z M50.9,99.9
			c-0.5,0-1.1-0.2-1.5-0.5c-1.1-0.8-1.3-2.4-0.5-3.5c2.4-3.2,4.9-6.4,7.5-9.4c0.9-1.1,2.5-1.2,3.5-0.3c1.1,0.9,1.2,2.5,0.3,3.5
			c-2.5,3-5,6.1-7.4,9.2C52.4,99.6,51.7,99.9,50.9,99.9z M432.2,99.5c-0.8,0-1.5-0.3-2-1c-2.4-3.1-4.9-6.2-7.4-9.2
			c-0.9-1.1-0.8-2.6,0.3-3.5c1.1-0.9,2.6-0.8,3.5,0.3c2.6,3.1,5.1,6.2,7.5,9.4c0.8,1.1,0.6,2.7-0.5,3.5
			C433.3,99.3,432.8,99.5,432.2,99.5z M66.2,81.7c-0.6,0-1.2-0.2-1.7-0.7c-1-0.9-1.1-2.5-0.1-3.5c2.7-2.9,5.5-5.8,8.4-8.6
			c1-1,2.6-0.9,3.5,0c1,1,0.9,2.6,0,3.5c-2.8,2.7-5.6,5.6-8.2,8.5C67.6,81.4,66.9,81.7,66.2,81.7z M416.9,81.3
			c-0.7,0-1.3-0.3-1.8-0.8c-2.7-2.9-5.4-5.7-8.3-8.4c-1-1-1-2.5,0-3.5c1-1,2.5-1,3.5,0c2.9,2.8,5.7,5.7,8.4,8.6
			c0.9,1,0.9,2.6-0.1,3.5C418.1,81.1,417.5,81.3,416.9,81.3z M83.3,65c-0.7,0-1.4-0.3-1.9-0.8c-0.9-1-0.8-2.6,0.2-3.5
			c3-2.7,6.1-5.3,9.2-7.8c1.1-0.9,2.7-0.7,3.5,0.4c0.9,1.1,0.7,2.7-0.4,3.5c-3.1,2.4-6.1,5-9,7.6C84.5,64.8,83.9,65,83.3,65z
			 M399.8,64.6c-0.6,0-1.2-0.2-1.7-0.6c-2.9-2.6-6-5.1-9.1-7.6c-1.1-0.9-1.3-2.4-0.4-3.5c0.9-1.1,2.4-1.3,3.5-0.4
			c3.1,2.5,6.2,5.1,9.2,7.7c1,0.9,1.1,2.5,0.2,3.5C401.2,64.4,400.5,64.6,399.8,64.6z M101.9,50.1c-0.8,0-1.5-0.4-2-1
			c-0.8-1.1-0.6-2.7,0.6-3.5c3.2-2.3,6.6-4.6,9.9-6.8c1.2-0.8,2.7-0.4,3.5,0.7c0.8,1.2,0.4,2.7-0.7,3.5c-3.3,2.1-6.6,4.4-9.7,6.7
			C102.9,50,102.4,50.1,101.9,50.1z M381.1,49.8c-0.5,0-1-0.2-1.5-0.5c-3.2-2.3-6.5-4.5-9.8-6.6c-1.2-0.7-1.5-2.3-0.7-3.5
			c0.7-1.2,2.3-1.5,3.5-0.7c3.4,2.2,6.7,4.4,10,6.8c1.1,0.8,1.4,2.4,0.6,3.5C382.7,49.4,381.9,49.8,381.1,49.8z M121.9,37.1
			c-0.9,0-1.7-0.4-2.2-1.2c-0.7-1.2-0.3-2.7,0.9-3.4c3.5-2,7-3.9,10.6-5.8c1.2-0.6,2.7-0.2,3.4,1.1c0.6,1.2,0.2,2.7-1.1,3.4
			c-3.5,1.8-7,3.7-10.3,5.7C122.7,37,122.3,37.1,121.9,37.1z M361.1,36.8c-0.4,0-0.9-0.1-1.2-0.3c-3.4-2-6.9-3.9-10.4-5.6
			c-1.2-0.6-1.7-2.1-1.1-3.4c0.6-1.2,2.1-1.7,3.4-1.1c3.6,1.8,7.1,3.8,10.6,5.8c1.2,0.7,1.6,2.2,0.9,3.4
			C362.8,36.4,361.9,36.8,361.1,36.8z M143,26.2c-1,0-1.9-0.5-2.3-1.5c-0.6-1.3,0-2.7,1.2-3.3c3.6-1.6,7.4-3.2,11.1-4.7
			c1.3-0.5,2.7,0.1,3.2,1.4c0.5,1.3-0.1,2.7-1.4,3.2c-3.6,1.4-7.3,3-10.8,4.6C143.7,26.2,143.4,26.2,143,26.2z M339.8,26
			c-0.3,0-0.7-0.1-1-0.2c-3.6-1.6-7.3-3.2-10.9-4.6c-1.3-0.5-1.9-2-1.4-3.2c0.5-1.3,2-1.9,3.2-1.4c3.7,1.5,7.5,3,11.1,4.7
			c1.3,0.6,1.8,2,1.3,3.3C341.7,25.4,340.8,26,339.8,26z M165.2,17.5c-1,0-2-0.7-2.4-1.7c-0.4-1.3,0.3-2.7,1.6-3.2
			c3.8-1.3,7.7-2.5,11.5-3.6c1.3-0.4,2.7,0.4,3.1,1.7c0.4,1.3-0.4,2.7-1.7,3.1c-3.8,1.1-7.6,2.2-11.3,3.5
			C165.7,17.5,165.5,17.5,165.2,17.5z M317.6,17.3c-0.3,0-0.5,0-0.8-0.1c-3.7-1.2-7.5-2.4-11.3-3.5c-1.3-0.4-2.1-1.8-1.7-3.1
			c0.4-1.3,1.7-2.1,3.1-1.7c3.9,1.1,7.7,2.3,11.5,3.5c1.3,0.4,2,1.9,1.6,3.2C319.6,16.6,318.6,17.3,317.6,17.3z M188.1,11
			c-1.1,0-2.2-0.8-2.4-1.9c-0.3-1.3,0.5-2.7,1.9-3c3.9-0.9,7.9-1.7,11.8-2.4c1.4-0.2,2.7,0.7,2.9,2c0.2,1.4-0.7,2.7-2,2.9
			c-3.9,0.7-7.8,1.5-11.6,2.3C188.5,11,188.3,11,188.1,11z M294.6,10.9c-0.2,0-0.4,0-0.6-0.1c-3.8-0.9-7.7-1.6-11.6-2.3
			c-1.4-0.2-2.3-1.5-2-2.9c0.2-1.4,1.5-2.3,2.9-2c3.9,0.7,7.9,1.5,11.8,2.4c1.3,0.3,2.2,1.6,1.9,3C296.8,10.1,295.7,10.9,294.6,10.9
			z M211.6,6.9c-1.2,0-2.3-0.9-2.5-2.2c-0.2-1.4,0.8-2.6,2.2-2.8c4-0.5,8-0.9,12-1.2c1.4-0.1,2.6,0.9,2.7,2.3
			c0.1,1.4-0.9,2.6-2.3,2.7c-3.9,0.3-7.9,0.7-11.7,1.2C211.8,6.9,211.7,6.9,211.6,6.9z M271.1,6.8c-0.1,0-0.2,0-0.3,0
			c-3.9-0.5-7.8-0.9-11.7-1.1c-1.4-0.1-2.4-1.3-2.3-2.7c0.1-1.4,1.3-2.4,2.7-2.3c4,0.3,8,0.7,12,1.2c1.4,0.2,2.3,1.4,2.2,2.8
			C273.4,5.9,272.3,6.8,271.1,6.8z M235.4,5.1c-1.4,0-2.5-1.1-2.5-2.4c0-1.4,1.1-2.5,2.4-2.6c4-0.1,8.1-0.1,12.1,0
			c1.4,0,2.5,1.2,2.4,2.6c0,1.4-1.2,2.5-2.6,2.4C243.3,5,239.4,5,235.4,5.1C235.4,5.1,235.4,5.1,235.4,5.1z"/>
	</g>
</g>
<g id="år">
	<g>
		<g>
			<path fill="#231F20" d="M123.1,302.6c0-0.6,0-1,0-1c0-0.6,0.2-1.1,0.6-1.5c0.4-0.4,0.9-0.6,1.5-0.6h4.6c1.2,0,2.3-0.4,3.1-1.3
				c0.9-0.9,1.3-1.9,1.3-3.1c0-1.2-0.4-2.3-1.3-3.1c-0.9-0.9-1.9-1.3-3.1-1.3l0,0h-4.9l0,0c-1,0-1.8,0.3-2.6,0.9
				c-0.8,0.6-1.3,1.3-1.6,2.2l-0.8,0l-0.2,2.3l3.7,0.2l0.1-2.3l-0.4,0c0.4-0.6,1-0.9,1.7-0.9l0.1,0h4.9l0.1,0c0.6,0,1.1,0.2,1.5,0.6
				c0.4,0.4,0.6,0.9,0.6,1.5c0,0.6-0.2,1.1-0.6,1.5c-0.4,0.4-0.9,0.6-1.5,0.6h-4.6c-1.2,0-2.3,0.4-3.1,1.3c-0.9,0.9-1.3,1.9-1.3,3.1
				v2.1h0v2.4H134v-2.4h-10.9V302.6z"/>
		</g>
		<g>
			<path fill="#231F20" d="M154.7,301.6l0-6.5c0-1.2-0.4-2.3-1.3-3.1c-0.9-0.9-1.9-1.3-3.1-1.3l0,0h-6.1l-0.1,0
				c-1.2,0-2.3,0.4-3.1,1.3c-0.9,0.9-1.3,1.9-1.3,3.1l0,6.5c0,1.2,0.4,2.3,1.3,3.1c0.9,0.9,1.9,1.3,3.1,1.3h6.1
				c1.2,0,2.3-0.4,3.1-1.3C154.3,303.9,154.7,302.8,154.7,301.6z M152.4,301.6c0,0.6-0.2,1.1-0.6,1.5c-0.4,0.4-0.9,0.6-1.5,0.6h-6.1
				c-0.6,0-1.1-0.2-1.5-0.6c-0.4-0.4-0.6-0.9-0.6-1.5l0-6.5c0-0.6,0.2-1.1,0.6-1.5c0.4-0.4,0.9-0.6,1.5-0.6h6.2
				c0.6,0,1.1,0.2,1.5,0.6c0.4,0.4,0.6,0.9,0.6,1.5L152.4,301.6z"/>
		</g>
		<g>
			<polygon fill="#231F20" points="340.6,290.7 340.6,290.7 340.6,290.6 336.6,290.6 336.6,293 338.3,293 338.3,303.7 336.6,303.7 
				336.6,306 342.3,306 342.3,303.7 340.6,303.7 			"/>
		</g>
		<g>
			<path fill="#231F20" d="M363,301.6c0-1.3-0.5-2.4-1.4-3.3c1-0.9,1.4-2,1.4-3.3c0-1.2-0.4-2.3-1.3-3.1c-0.9-0.9-1.9-1.3-3.1-1.3
				l0,0h-5.4l-0.1,0c-1,0-1.8,0.3-2.6,0.9c-0.8,0.6-1.3,1.3-1.6,2.2l-0.8-0.1l-0.2,2.3l3.7,0.2l0.2-2.3l-0.4,0
				c0.4-0.6,1-0.9,1.7-0.9h5.4c0.6,0,1.1,0.2,1.5,0.6c0.4,0.4,0.6,0.9,0.6,1.5c0,0.5-0.2,1-0.5,1.4c-0.4,0.4-0.8,0.6-1.3,0.7h-3.3
				v-0.8h-2.3v3.9h2.3v-0.8h3.3c0.5,0.1,1,0.3,1.3,0.7c0.4,0.4,0.5,0.9,0.5,1.4c0,0.6-0.2,1.1-0.6,1.5c-0.4,0.4-0.9,0.6-1.5,0.6
				h-5.4c-0.7,0-1.3-0.3-1.7-0.9l0.4,0l-0.2-2.3l-3.7,0.2l0.2,2.3l0.8-0.1c0.3,0.9,0.8,1.6,1.6,2.2c0.8,0.6,1.7,0.9,2.6,0.9l0.1,0
				h5.4l0,0c1.2,0,2.3-0.4,3.1-1.3C362.5,303.9,363,302.8,363,301.6z"/>
		</g>
	</g>
</g>
<g id="Layer_25">
	<path fill="#231F20" d="M290.1,91.2h-16.3l-3.4-25.8c-0.2-1.3-1.2-2.2-2.6-2.3c-1.2,0-2.3,0.9-2.6,2.1l-4.7,24.1l-5.9-17.1
		c-0.4-1-1.4-1.8-2.5-1.8c-1.1,0-2.1,0.7-2.5,1.8l-2.6,7.8l-4.8-22.7c-0.3-1.2-1.3-2.1-2.6-2.1c0,0,0,0,0,0c-1.2,0-2.3,0.9-2.5,2.2
		l-6,35.4l-6.7-19.7c-0.4-1.1-1.4-1.8-2.5-1.8c-1.1,0-2.1,0.7-2.5,1.8l-5.7,18h-17.7c-1.4,0-2.6,1.2-2.6,2.6s1.2,2.6,2.6,2.6h19.6
		c1.1,0,2.1-0.7,2.5-1.8l3.9-12.3l7.5,22c0.4,1.1,1.4,1.8,2.5,1.8c0.1,0,0.1,0,0.2,0c1.2-0.1,2.2-1,2.4-2.2l5.4-32.2l4,18.8
		c0.2,1.1,1.2,2,2.4,2.1l0.1,0c1.1,0,2.1-0.7,2.5-1.8l3.2-9.6l6.6,19.1c0.4,1.1,1.5,1.8,2.6,1.7c1.2-0.1,2.1-0.9,2.4-2.1l3.4-17.9
		l1.6,12.1c0.2,1.3,1.3,2.3,2.6,2.3h18.6c1.4,0,2.6-1.2,2.6-2.6S291.6,91.2,290.1,91.2z"/>
</g>
<g id="Layer_31">
	<path fill="#231F20" d="M150.5,177.7c-0.3-2.4-1.2-4.2-2.5-5.3c0,0,0,0,0-0.1c0,0-0.1,0-0.1-0.1c0,0,0,0,0,0c0,0,0,0-0.1,0
		c-0.1,0-0.2-0.1-0.3-0.2c-0.3-0.1-0.7-0.4-1.2-0.6c-1-0.4-2.5-0.8-4-0.9c-0.4,0-0.8,0-1.1,0c-0.2,0-0.4,0-0.6,0.1
		c-0.2,0-0.4,0.1-0.5,0.1c-0.2,0-0.3,0.1-0.5,0.1c-0.2,0.1-0.3,0.1-0.5,0.2c-0.2,0.1-0.3,0.1-0.5,0.2c-0.1,0.1-0.3,0.1-0.4,0.2
		c-0.1,0.1-0.3,0.1-0.4,0.2c-0.1,0.1-0.2,0.1-0.3,0.2c-0.2,0.1-0.4,0.2-0.5,0.3c-0.3,0.2-0.4,0.3-0.4,0.3s0.1-0.1,0.4-0.4
		c0.1-0.1,0.3-0.3,0.5-0.4c0.1-0.1,0.2-0.2,0.3-0.3c0.1-0.1,0.2-0.2,0.3-0.3c0.1-0.1,0.3-0.2,0.4-0.3c0.1-0.1,0.3-0.2,0.4-0.3
		c0.2-0.1,0.3-0.2,0.5-0.3c0.2-0.1,0.3-0.2,0.5-0.2c0.2-0.1,0.4-0.1,0.6-0.2c0.2-0.1,0.4-0.1,0.6-0.2c0.4-0.1,0.8-0.2,1.2-0.3
		c0.4-0.1,0.8-0.1,1.3-0.1c0.4,0,0.8,0,1.2,0c0.8,0,1.5,0.1,2.2,0.3c0.6,0.1,1.1,0.3,1.5,0.4c0.1-1.9-0.2-4.2-1.2-6.8
		c-1.7-4.3-5.4-6.5-8.3-7.6c0,0.2,0,0.4,0,0.7c0,0.5,0,1.1-0.1,1.8c0,0.3,0,0.7-0.1,1c0,0.3-0.1,0.7-0.1,1c0,0.3-0.1,0.7-0.1,1
		c-0.1,0.3-0.1,0.7-0.2,1c-0.1,0.3-0.1,0.6-0.2,0.9c-0.1,0.3-0.1,0.6-0.2,0.8c-0.1,0.2-0.1,0.5-0.2,0.7c-0.1,0.2-0.1,0.4-0.2,0.5
		c-0.1,0.3-0.2,0.4-0.2,0.4s0-0.2,0-0.5c0-0.1,0-0.3,0-0.5c0-0.2,0-0.4,0-0.7c0-0.3,0-0.5,0-0.8c0-0.3,0-0.6,0-0.9
		c0-0.3-0.1-0.6-0.1-1c0-0.3-0.1-0.7-0.1-1c0-0.3-0.1-0.7-0.2-1c-0.1-0.3-0.1-0.6-0.2-1c-0.1-0.6-0.2-1.2-0.4-1.7
		c-0.1-0.5-0.2-0.9-0.3-1.2c0-0.1-0.1-0.2-0.1-0.3c0-0.1,0-0.1,0-0.1c0-0.1,0-0.1,0-0.2c0,0,0,0,0,0c-0.8-2.3-2.2-5.1-4.3-7.6
		c-2.9-3.4-8-7.5-16-7.5c-11.4,0-17.9,6.4-20.2,9.3c0,0,0,0,0,0c0,0,0,0.1-0.1,0.1c0,0,0,0-0.1,0.1c-0.1,0.1-0.1,0.2-0.2,0.3
		c-0.2,0.2-0.5,0.6-0.8,1c-0.6,0.9-1.4,2.1-2.1,3.4c-0.2,0.3-0.3,0.6-0.5,1c-0.2,0.3-0.3,0.6-0.4,1c-0.1,0.3-0.2,0.6-0.3,0.9
		c0,0.1-0.1,0.3-0.1,0.4c0,0.1-0.1,0.3-0.1,0.4c-0.1,0.3-0.1,0.5-0.1,0.7c0,0.1,0,0.2,0,0.3c0,0.1,0,0.2,0,0.3c0,0.2,0,0.3,0,0.4
		c0,0.1,0,0.1,0,0.1s0,0,0-0.1c0-0.1-0.1-0.2-0.1-0.4c0-0.1,0-0.2-0.1-0.3c0-0.1,0-0.2,0-0.3c0-0.2,0-0.5,0-0.8c0-0.1,0-0.3,0-0.4
		c0-0.2,0-0.3,0-0.5c0-0.3,0.1-0.7,0.1-1c0.1-0.4,0.1-0.7,0.2-1.1c0.1-0.4,0.2-0.7,0.3-1.1c0.4-1.5,0.9-2.9,1.3-3.9
		c-0.1,0-0.2,0-0.2,0.1c-3.8,0.9-6.6,3-8.1,5.9c-0.4,0.6-2.4,3.7-3,7.4c0,0,0,0,0,0c0,0.1,0,0.2,0,0.3c0,0.3,0,0.6-0.1,1.1
		c0,0.9,0,2.1,0.1,3.3c0,0.3,0.1,0.6,0.1,0.9c0,0.3,0.1,0.6,0.2,0.9c0.1,0.3,0.1,0.5,0.2,0.8c0.1,0.2,0.2,0.5,0.3,0.7
		c0,0.1,0.1,0.2,0.2,0.3c0.1,0.1,0.1,0.2,0.2,0.2c0.1,0.1,0.2,0.3,0.3,0.3c0.1,0.1,0.2,0.1,0.3,0.2c0.1,0,0.1,0.1,0.1,0.1s0,0-0.1,0
		c-0.1,0-0.2,0-0.3-0.1c-0.1-0.1-0.3-0.2-0.4-0.3c-0.1-0.1-0.2-0.1-0.2-0.2c-0.1-0.1-0.2-0.2-0.3-0.3c-0.2-0.2-0.3-0.4-0.5-0.6
		c-0.2-0.2-0.3-0.5-0.5-0.8c-0.1-0.3-0.3-0.6-0.4-0.8c-0.1-0.3-0.3-0.6-0.4-0.9c-0.5-1.2-0.8-2.5-1-3.4c0-0.1-0.1-0.3-0.1-0.4
		c-1.4,1-2.9,2.5-3.6,4.9c0,0,0,0,0,0c0,0,0,0.1,0,0.1c0,0,0,0,0,0c0,0,0,0,0,0c0,0,0,0.1-0.1,0.2c-0.1,0.2-0.1,0.4-0.2,0.7
		c-0.1,0.3-0.1,0.7-0.1,1.1c0,0.2,0,0.4,0.1,0.6c0,0.2,0.1,0.4,0.1,0.6c0.1,0.2,0.1,0.4,0.2,0.6c0,0.1,0.1,0.2,0.1,0.3
		c0.1,0.1,0.1,0.2,0.2,0.3c0.1,0.1,0.1,0.2,0.2,0.3c0.1,0.1,0.1,0.2,0.2,0.2c0.1,0.2,0.3,0.3,0.4,0.4c0.1,0.1,0.2,0.2,0.4,0.3
		c0.1,0.1,0.2,0.2,0.3,0.2c0.2,0.1,0.3,0.2,0.3,0.2s-0.1,0-0.3-0.1c-0.1,0-0.2-0.1-0.4-0.2c-0.1-0.1-0.3-0.1-0.4-0.2
		c-0.2-0.1-0.3-0.2-0.5-0.3c-0.1-0.1-0.2-0.1-0.3-0.2c-0.1-0.1-0.2-0.2-0.3-0.2c-0.1-0.1-0.2-0.2-0.3-0.3c-0.1-0.1-0.2-0.2-0.2-0.3
		c-0.2-0.2-0.3-0.4-0.4-0.6c-0.1-0.2-0.3-0.5-0.4-0.7c-0.1-0.2-0.2-0.5-0.3-0.7c-0.1-0.5-0.2-1-0.3-1.4c0-0.1,0-0.3,0-0.4
		c-0.8,0.3-1.8,0.8-2.9,1.4c-3.5,2.2-5.3,5.2-5.3,8.8c0,4.6,2.5,6.9,4.5,8c2.2,1.2,4.3,1.2,4.4,1.2l68.6,0l0.1,0
		c2.8-0.5,8.2-2.8,8.3-8C150.6,180.7,150.7,179.3,150.5,177.7z"/>
	<path fill="#231F20" d="M333,177.7c0.3-2.4,1.2-4.2,2.5-5.3c0,0,0,0,0-0.1c0,0,0.1,0,0.1-0.1c0,0,0,0,0,0c0,0,0,0,0.1,0
		c0.1,0,0.2-0.1,0.3-0.2c0.3-0.1,0.7-0.4,1.2-0.6c1-0.4,2.5-0.8,4-0.9c0.4,0,0.8,0,1.1,0c0.2,0,0.4,0,0.6,0.1c0.2,0,0.4,0.1,0.5,0.1
		c0.2,0,0.3,0.1,0.5,0.1c0.2,0.1,0.3,0.1,0.5,0.2c0.2,0.1,0.3,0.1,0.5,0.2c0.1,0.1,0.3,0.1,0.4,0.2c0.1,0.1,0.3,0.1,0.4,0.2
		c0.1,0.1,0.2,0.1,0.3,0.2c0.2,0.1,0.4,0.2,0.5,0.3c0.3,0.2,0.4,0.3,0.4,0.3s-0.1-0.1-0.4-0.4c-0.1-0.1-0.3-0.3-0.5-0.4
		c-0.1-0.1-0.2-0.2-0.3-0.3c-0.1-0.1-0.2-0.2-0.3-0.3c-0.1-0.1-0.3-0.2-0.4-0.3c-0.1-0.1-0.3-0.2-0.4-0.3c-0.2-0.1-0.3-0.2-0.5-0.3
		c-0.2-0.1-0.3-0.2-0.5-0.2c-0.2-0.1-0.4-0.1-0.6-0.2c-0.2-0.1-0.4-0.1-0.6-0.2c-0.4-0.1-0.8-0.2-1.2-0.3c-0.4-0.1-0.8-0.1-1.3-0.1
		c-0.4,0-0.8,0-1.2,0c-0.8,0-1.5,0.1-2.2,0.3c-0.6,0.1-1.1,0.3-1.5,0.4c-0.1-1.9,0.2-4.2,1.2-6.8c1.7-4.3,5.4-6.5,8.3-7.6
		c0,0.2,0,0.4,0,0.7c0,0.5,0,1.1,0.1,1.8c0,0.3,0,0.7,0.1,1c0,0.3,0.1,0.7,0.1,1c0,0.3,0.1,0.7,0.1,1c0.1,0.3,0.1,0.7,0.2,1
		c0.1,0.3,0.1,0.6,0.2,0.9c0.1,0.3,0.1,0.6,0.2,0.8c0.1,0.2,0.1,0.5,0.2,0.7c0.1,0.2,0.1,0.4,0.2,0.5c0.1,0.3,0.2,0.4,0.2,0.4
		s0-0.2,0-0.5c0-0.1,0-0.3,0-0.5c0-0.2,0-0.4,0-0.7c0-0.3,0-0.5,0-0.8c0-0.3,0-0.6,0-0.9c0-0.3,0.1-0.6,0.1-1c0-0.3,0.1-0.7,0.1-1
		c0-0.3,0.1-0.7,0.2-1c0.1-0.3,0.1-0.6,0.2-1c0.1-0.6,0.2-1.2,0.4-1.7c0.1-0.5,0.2-0.9,0.3-1.2c0-0.1,0.1-0.2,0.1-0.3
		c0-0.1,0-0.1,0-0.1c0-0.1,0-0.1,0-0.2c0,0,0,0,0,0c0.8-2.3,2.2-5.1,4.3-7.6c2.9-3.4,8-7.5,16-7.5c11.4,0,17.9,6.4,20.2,9.3
		c0,0,0,0,0,0c0,0,0,0.1,0.1,0.1c0,0,0,0,0.1,0.1c0.1,0.1,0.1,0.2,0.2,0.3c0.2,0.2,0.5,0.6,0.8,1c0.6,0.9,1.4,2.1,2.1,3.4
		c0.2,0.3,0.3,0.6,0.5,1c0.2,0.3,0.3,0.6,0.4,1c0.1,0.3,0.2,0.6,0.3,0.9c0,0.1,0.1,0.3,0.1,0.4c0,0.1,0.1,0.3,0.1,0.4
		c0.1,0.3,0.1,0.5,0.1,0.7c0,0.1,0,0.2,0,0.3c0,0.1,0,0.2,0,0.3c0,0.2,0,0.3,0,0.4c0,0.1,0,0.1,0,0.1s0,0,0-0.1
		c0-0.1,0.1-0.2,0.1-0.4c0-0.1,0-0.2,0.1-0.3c0-0.1,0-0.2,0-0.3c0-0.2,0-0.5,0-0.8c0-0.1,0-0.3,0-0.4c0-0.2,0-0.3,0-0.5
		c0-0.3-0.1-0.7-0.1-1c-0.1-0.4-0.1-0.7-0.2-1.1c-0.1-0.4-0.2-0.7-0.3-1.1c-0.4-1.5-0.9-2.9-1.3-3.9c0.1,0,0.2,0,0.2,0.1
		c3.8,0.9,6.6,3,8.1,5.9c0.4,0.6,2.4,3.7,3,7.4c0,0,0,0,0,0c0,0.1,0,0.2,0,0.3c0,0.3,0,0.6,0.1,1.1c0,0.9,0,2.1-0.1,3.3
		c0,0.3-0.1,0.6-0.1,0.9c0,0.3-0.1,0.6-0.2,0.9c-0.1,0.3-0.1,0.5-0.2,0.8c-0.1,0.2-0.2,0.5-0.3,0.7c0,0.1-0.1,0.2-0.2,0.3
		c-0.1,0.1-0.1,0.2-0.2,0.2c-0.1,0.1-0.2,0.3-0.3,0.3c-0.1,0.1-0.2,0.1-0.3,0.2c-0.1,0-0.1,0.1-0.1,0.1s0,0,0.1,0
		c0.1,0,0.2,0,0.3-0.1c0.1-0.1,0.3-0.2,0.4-0.3c0.1-0.1,0.2-0.1,0.2-0.2c0.1-0.1,0.2-0.2,0.3-0.3c0.2-0.2,0.3-0.4,0.5-0.6
		c0.2-0.2,0.3-0.5,0.5-0.8c0.1-0.3,0.3-0.6,0.4-0.8c0.1-0.3,0.3-0.6,0.4-0.9c0.5-1.2,0.8-2.5,1-3.4c0-0.1,0.1-0.3,0.1-0.4
		c1.4,1,2.9,2.5,3.6,4.9c0,0,0,0,0,0c0,0,0,0.1,0,0.1c0,0,0,0,0,0c0,0,0,0,0,0c0,0,0,0.1,0.1,0.2c0.1,0.2,0.1,0.4,0.2,0.7
		c0.1,0.3,0.1,0.7,0.1,1.1c0,0.2,0,0.4-0.1,0.6c0,0.2-0.1,0.4-0.1,0.6c-0.1,0.2-0.1,0.4-0.2,0.6c0,0.1-0.1,0.2-0.1,0.3
		c-0.1,0.1-0.1,0.2-0.2,0.3c-0.1,0.1-0.1,0.2-0.2,0.3c-0.1,0.1-0.1,0.2-0.2,0.2c-0.1,0.2-0.3,0.3-0.4,0.4c-0.1,0.1-0.2,0.2-0.4,0.3
		c-0.1,0.1-0.2,0.2-0.3,0.2c-0.2,0.1-0.3,0.2-0.3,0.2s0.1,0,0.3-0.1c0.1,0,0.2-0.1,0.4-0.2c0.1-0.1,0.3-0.1,0.5-0.2
		c0.2-0.1,0.3-0.2,0.5-0.3c0.1-0.1,0.2-0.1,0.3-0.2c0.1-0.1,0.2-0.2,0.3-0.2c0.1-0.1,0.2-0.2,0.3-0.3c0.1-0.1,0.2-0.2,0.2-0.3
		c0.2-0.2,0.3-0.4,0.4-0.6c0.1-0.2,0.3-0.5,0.4-0.7c0.1-0.2,0.2-0.5,0.3-0.7c0.1-0.5,0.2-1,0.3-1.4c0-0.1,0-0.3,0-0.4
		c0.8,0.3,1.8,0.8,2.9,1.4c3.5,2.2,5.3,5.2,5.3,8.8c0,4.6-2.5,6.9-4.5,8c-2.2,1.2-4.3,1.2-4.4,1.2l-68.6,0l-0.1,0
		c-2.8-0.5-8.2-2.8-8.3-8C332.8,180.7,332.7,179.3,333,177.7z"/>
</g>
<g id="Layer_28">
	<path fill="#231F20" d="M398.4,228.4c-16.7-6-52.8-27.1-66.8-27.4c-5-0.1-10.4-0.8-15.3-1.7c-3.9-19.3-14.1-30.9-25.8-37.7l0.7-1.4
		l2.1-3.5l11.9-4.9l7.3-2.8l8.6-3.5l5.5-2.8l18.9-12.6l3.9-3.6l0.8-6.3c0.3-1,2.8-8.2,3.5-14.4c0.8-6.7-0.3-18-1.3-23.3
		c-1-5.3-3.7-12.1-3.8-12.4l-2.4-6.2c-0.1-0.4-0.8-2.5-3.3-6.4c-2.4,0.2-4.8,0.1-7.2-0.6l6,16.4l2.4,6.3c0,1,0.2,6.4,0,11.3
		c-0.2,4.2-1.5,8.8-2,10.5H342l-5.4-5.6c-0.4-0.7-2.8-5-4.1-9.2c-1.6-5.1-4.9-6.8-5-6.8l-1.7-0.9l1.8,12.8l7.2,12.4v3.5l-14.3-5.7
		c-0.4-0.2-9.1-4.3-12.6-5.1c-1.3-0.3-3.4-2.2-5.1-3.7c-2.1-1.9-3.3-2.9-4.3-2.9c-0.7,0-1.5,0.5-1.5,1.8c0,3.5,6.3,9.4,7.6,10.5
		l0.1,0.1l4.6,1.8l16.3,8.8c1.8,0.7,6.7,3.1,8.4,5c0.4,0.4,0.8,1,0.7,1.6c-0.1,0.5-0.5,0.9-0.5,0.9l-9,10.7
		c-2,0.8-15.3,5.8-18.6,7.7c-2.5,1.4-4.3,1.2-4.9,1.1l-1.6-2c-0.1-0.1-2.1-2.4-0.8-6.5c0.6-1.8,1.7-6,0.6-7.6
		c-0.5-0.6-1.2-0.9-2.1-0.3c-1.6,1-2.7,2-4.4,8c-1.5,5.5-2.3,11.4-2.5,13l-11.9,10l-0.8,0.9c-17.9-5.9-35.3-3.7-35.8-3.6
		c-0.5-0.1-17.6-2.3-35.4,3.5l-0.6-0.7l-12.1-10.1c-0.2-1.6-1-7.5-2.5-13c-1.7-6.1-2.8-7.1-4.4-8.1c-0.8-0.5-1.6-0.3-2.1,0.4
		c-1.1,1.5,0,5.8,0.6,7.6c1.3,4.1-0.7,6.4-0.9,6.6l-1.5,2c-0.6,0.1-2.4,0.3-4.9-1.1c-3.3-1.8-16.6-6.9-18.6-7.7l-8.8-10.5l-0.2-0.2
		c0,0-0.5-0.4-0.5-0.9c-0.1-0.6,0.4-1.2,0.7-1.6c2.1-2.3,8.3-5,8.5-5l16.2-8.7l4.6-1.8l0.1-0.1c1.3-1.1,7.6-7,7.6-10.5
		c0-1.3-0.8-1.8-1.5-1.8c-1,0-2.2,1-4.3,2.9c-1.7,1.5-3.8,3.4-5.1,3.7c-3.4,0.8-12.2,4.9-12.5,5l-14.4,5.7v-3.5l7.2-12.4l1.8-12.8
		l-1.7,0.9c-0.1,0.1-3.4,1.7-5,6.8c-1.3,4.2-3.7,8.5-4.1,9.2l-5.4,5.6h-0.1c-0.5-1.7-1.8-6.3-2-10.5c-0.2-4.9,0-10.3,0-11.3l2.4-6.4
		l6.6-18.3c-0.2,0.1-0.5,0.2-0.8,0.3c0,0,0,0,0,0c0,0,0,0,0,0c-0.2,0.1-0.3,0.2-0.5,0.3c-0.6,0.3-1.2,0.6-1.9,0.7
		c-0.9,0.1-1.8,0.1-2.7,0c-0.5,0.5-1.2,0.8-2,1c-2.6,4.1-3.2,6.2-3.4,6.6l-2.4,6.2c-0.1,0.3-2.8,7.1-3.8,12.4
		c-1,5.3-2,16.6-1.3,23.3c0.7,6.2,3.2,13.4,3.5,14.4l0.8,6.3l3.8,3.5l18.9,12.6l5.7,2.8l8.5,3.5l7.2,2.7l11.9,4.9l2.1,3.5l0.6,1.2
		c-11.8,6.8-22.1,18.4-26.1,37.9c-4.9,0.8-10.3,1.5-15.3,1.7c-14,0.3-50.1,21.4-66.8,27.4s-25.3,5.5,6,28.2
		c31.3,22.7,60.4,28.5,78.7,12.9c7.1-6,11.2-10.5,13.6-13.7c-0.3,56-4.2,103.7-24.6,135.6c-8.2,12.8-13.3,24.8-16.6,34.7
		c15.6,8.9,46.5,21.5,95.9,21.5c56.3,0,88-16.4,100.7-24.9c-3.3-9.2-8.1-20-15.4-31.3c-20.4-31.9-24.3-79.7-24.6-135.7
		c2.3,3.2,6.5,7.7,13.6,13.8c18.3,15.6,47.4,9.8,78.7-12.9C423.7,234,415.1,234.4,398.4,228.4z M151.4,224.5
		c-0.3-11.9,8.4-17,8.4-17l0.9,35.7C160.8,243.2,151.7,236.4,151.4,224.5z M196.7,280.7c-0.6-0.4-1.2-0.8-1.7-1.3
		c-2.2-2-3.5-4.8-4.2-7.4c-0.7-2.6-1-5.2-1-7.3c0-2.2,0.1-4,0.2-5.2c0.1-1.3,0.3-2,0.3-2l0.3,0.1c0,0,0,0.2,0.1,0.5
		c0,0.3,0.1,0.8,0.2,1.5c0.2,1.3,0.4,3,0.8,5.1c0.2,1,0.4,2.1,0.7,3.2c0.3,1.1,0.7,2.3,1,3.4c0.4,1.1,1,2.2,1.5,3.2
		c0.6,1,1.3,1.9,2.2,2.7c0.4,0.4,0.8,0.7,1.3,1.1c0.2,0.2,0.5,0.3,0.7,0.4l1,0.6c0.6,0.4,1.2,0.7,1.9,1.2c0.6,0.5,1.3,0.9,1.8,1.5
		c0.6,0.5,1.1,1,1.6,1.6c0.2,0.3,0.5,0.5,0.7,0.8c0.2,0.3,0.4,0.6,0.6,0.8c0.8,1.1,1.4,2.3,1.8,3.4c0.2,0.5,0.4,1.1,0.6,1.6
		c0.1,0.5,0.2,1,0.3,1.5c0.2,0.9,0.2,1.8,0.2,2.4c0,0.7-0.1,1.2-0.1,1.5c-0.1,0.4-0.1,0.5-0.1,0.5H209c0,0,0-0.7-0.3-1.9
		c-0.1-0.6-0.3-1.3-0.6-2.2c-0.1-0.4-0.3-0.8-0.5-1.3c-0.2-0.4-0.4-0.9-0.7-1.4c-0.5-0.9-1.2-1.9-2-2.8c-0.2-0.2-0.4-0.5-0.6-0.7
		c-0.2-0.2-0.5-0.4-0.7-0.7c-0.4-0.5-1-0.9-1.5-1.3c-1-0.8-2.2-1.6-3.5-2.2C198,281.5,197.3,281.1,196.7,280.7z M283.1,378.9
		c-0.7,0.5-1.6,0.3-2.1-0.4l-8.9-13.6l-8.4,13.5c-0.3,0.5-0.8,0.7-1.3,0.7c0,0-0.1,0-0.1,0c-0.6,0.1-1.1-0.2-1.5-0.7l-8.9-13.6
		l-8.4,13.5c0,0,0,0,0,0c-0.1,0.1-0.1,0.2-0.2,0.3c0,0-0.1,0-0.1,0.1c0,0-0.1,0.1-0.1,0.1c0,0,0,0-0.1,0c0,0-0.1,0-0.1,0.1
		c-0.1,0-0.1,0.1-0.2,0.1c0,0-0.1,0-0.1,0c-0.1,0-0.2,0-0.3,0c0,0,0,0-0.1,0c0,0,0,0,0,0c-0.1,0-0.2,0-0.3,0c0,0-0.1,0-0.1,0
		c-0.1,0-0.2-0.1-0.3-0.1c0,0,0,0,0,0c0,0,0,0,0,0c0,0-0.1-0.1-0.1-0.1c0,0-0.1-0.1-0.1-0.1c0,0-0.1-0.1-0.1-0.1
		c0,0-0.1-0.1-0.1-0.1c0,0,0,0,0,0l-8.9-13.6l-8.4,13.5c-0.3,0.5-0.8,0.7-1.3,0.7c0,0-0.1,0-0.1,0c-0.6,0.1-1.1-0.2-1.5-0.7
		l-8.9-13.6l-8.4,13.5c-0.3,0.5-0.8,0.7-1.3,0.7c-0.3,0-0.5-0.1-0.8-0.2c-0.7-0.4-0.9-1.4-0.5-2.1l10.9-17.5l10.4,15.8l9.9-15.8
		l10.2,15.5l9.7-15.5l10.4,15.8l9.9-15.8l11.5,17.4C283.9,377.5,283.7,378.5,283.1,378.9z M253.9,301.5c-0.3,0.4-0.6,0.8-1.1,1.1
		c-0.5,0.4-1,0.8-1.6,1.2c-0.6,0.4-1.3,0.7-2,1c-0.7,0.3-1.5,0.6-2.4,0.8c-0.4,0.1-0.9,0.2-1.3,0.3c-0.4,0.1-0.8,0.1-1.2,0.2
		c-0.4,0-0.8,0.1-1.2,0.1l-0.6,0l-0.3,0l-0.2,0l-0.3,0c-0.9,0-1.8-0.1-2.6-0.2c-0.9-0.1-1.7-0.3-2.5-0.5c-0.8-0.2-1.6-0.4-2.3-0.8
		c-0.7-0.3-1.4-0.6-2-1c-0.6-0.4-1.1-0.8-1.6-1.2c-0.5-0.4-0.8-0.8-1.1-1.1c-0.3-0.3-0.5-0.7-0.6-0.9c-0.1-0.2-0.1-0.3-0.1-0.3
		l0.3-0.3c0,0,0.1,0.1,0.2,0.2c0.2,0.1,0.4,0.2,0.7,0.4c0.3,0.2,0.7,0.3,1.2,0.5c0.5,0.2,1,0.3,1.6,0.4c0.6,0.2,1.2,0.2,1.9,0.4
		c0.7,0.1,1.4,0.2,2.2,0.3c0.8,0.1,1.5,0.2,2.3,0.1c0.8,0,1.6,0,2.4,0.1c0.8,0,1.6,0,2.4,0c0.8,0,1.6-0.1,2.4-0.1
		c0.8-0.1,1.5-0.1,2.2-0.3c0.7-0.1,1.3-0.2,1.9-0.4c0.6-0.2,1.1-0.3,1.6-0.4c0.5-0.2,0.9-0.3,1.2-0.5c0.3-0.1,0.6-0.3,0.7-0.4
		c0.2-0.1,0.2-0.2,0.2-0.2l0.3,0.3c0,0,0,0.2-0.1,0.4C254.3,300.8,254.2,301.1,253.9,301.5z M254.4,310.7v11.8h-1v-11.8H254.4z
		 M251.4,313.2v12.8h-1v-12.8H251.4z M248.4,315v14.1h-1V315H248.4z M245.4,315v18.2h-1V315H245.4z M242.4,315v22.8h-1V315H242.4z
		 M239.4,315v18.2h-1V315H239.4z M236.4,315v14.1h-1V315H236.4z M233.4,313.2v12.8h-1v-12.8H233.4z M230.4,310.7v11.8h-1v-11.8
		H230.4z M293.5,272c-0.7,2.6-2,5.3-4.2,7.4c-0.5,0.5-1.1,0.9-1.7,1.3c-0.6,0.4-1.3,0.7-1.9,1.1c-1.3,0.7-2.4,1.4-3.5,2.2
		c-0.5,0.4-1,0.8-1.5,1.3c-0.2,0.2-0.5,0.4-0.7,0.7c-0.2,0.2-0.4,0.5-0.6,0.7c-0.8,0.9-1.5,1.9-2,2.8c-0.3,0.5-0.5,0.9-0.7,1.4
		c-0.2,0.4-0.4,0.9-0.5,1.3c-0.3,0.8-0.5,1.5-0.6,2.2c-0.3,1.2-0.3,1.9-0.3,1.9H275c0,0,0-0.2-0.1-0.5c0-0.4-0.1-0.9-0.1-1.5
		c0-0.7,0-1.5,0.2-2.4c0.1-0.5,0.2-1,0.3-1.5c0.2-0.5,0.3-1.1,0.6-1.6c0.5-1.1,1-2.3,1.8-3.4c0.2-0.3,0.4-0.6,0.6-0.8
		c0.2-0.3,0.5-0.5,0.7-0.8c0.4-0.6,1-1,1.6-1.6c0.5-0.5,1.2-1,1.8-1.5c0.7-0.5,1.2-0.8,1.9-1.2l1-0.6c0.2-0.2,0.5-0.3,0.7-0.4
		c0.5-0.3,0.9-0.7,1.3-1.1c0.8-0.7,1.6-1.7,2.2-2.7c0.6-1,1.2-2.1,1.5-3.2c0.4-1.1,0.8-2.3,1-3.4c0.3-1.1,0.5-2.2,0.7-3.2
		c0.4-2.1,0.6-3.8,0.8-5.1c0.1-0.6,0.2-1.1,0.2-1.5c0-0.3,0.1-0.5,0.1-0.5l0.3-0.1c0,0,0.1,0.7,0.3,2c0.1,1.3,0.3,3.1,0.2,5.2
		C294.5,266.9,294.3,269.4,293.5,272z M316.8,225.8l-0.5,20.4c-16.7,19-13.7-0.4-13.7-0.4l0.5-20.4l0.5-20.4c0,0-0.2-1.8,0-3.7
		c-0.1,0.1-0.2,0.1-0.3,0.2c-2.3,1.3-3.2,2.3-3.7,8.2c-0.1,0.6-0.1,1.4-0.1,2.3c-0.3,8.2-1.1,30-23.5,30h0c-0.9,0-1.9,0-2.9-0.1
		c-1.6-0.1-3.1-0.4-4.6-0.7c0.1,0.2,0.2,0.4,0.3,0.5c0.5,0.7,0.9,1.6,1.4,2.4c0.4,0.8,0.9,1.7,1.3,2.5c0.4,0.9,0.8,1.7,1.1,2.6
		c0.3,0.9,0.6,1.7,0.8,2.6c0.2,0.9,0.5,1.7,0.6,2.5c0.1,0.8,0.3,1.5,0.3,2.2c0,0.7,0.1,1.3,0.1,1.9c0,0.6,0,1.1-0.1,1.5
		c0,0.8-0.1,1.3-0.1,1.3s-0.1-0.5-0.2-1.2c-0.1-0.4-0.1-0.9-0.2-1.4c-0.1-0.5-0.3-1.1-0.5-1.8c-0.1-0.7-0.5-1.3-0.7-2
		c-0.2-0.7-0.6-1.4-1-2.2c-0.3-0.7-0.8-1.5-1.3-2.2c-0.4-0.8-1-1.4-1.5-2.2c-0.5-0.7-1.1-1.4-1.6-2c-0.6-0.6-1.1-1.3-1.7-1.9
		c-1.1-1.2-2.2-2.2-3.2-3.1c-0.8-0.7-1.5-1.2-2-1.6c-2.3,3-4.8,5-7.3,6.3c0,0,0,0,0,0c-0.6,0.4-1.3,0.8-1.9,1.2
		c-0.7,0.4-1.4,0.7-2.1,1c-0.7,0.3-1.5,0.6-2.3,0.8c-0.6,0.1-1.2,0.3-1.9,0.4c-0.1,0.6-0.1,1.4-0.1,2.2c0,2.6,0.4,6.3,2.3,9.2
		c0.5,0.7,1,1.4,1.7,2c0.6,0.6,1.3,1.2,2,1.7c0.7,0.5,1.5,0.9,2.2,1.2c0.4,0.2,0.7,0.3,1.1,0.4c0.4,0.1,0.7,0.3,1.1,0.4
		c0.7,0.2,1.3,0.4,1.9,0.5c0.6,0.1,1.1,0.2,1.5,0.3c0.9,0.1,1.3,0.2,1.3,0.2s-0.5,0-1.4,0.1c-0.4,0-1,0-1.6,0c-0.6,0-1.3,0-2-0.1
		c-0.4,0-0.8-0.1-1.2-0.2c-0.4-0.1-0.8-0.1-1.2-0.2c-0.9-0.2-1.8-0.5-2.7-0.8c-0.9-0.4-1.8-0.8-2.7-1.4c-0.9-0.6-1.7-1.3-2.5-2.1
		c-0.7-0.8-1.4-1.6-2-2.6c-0.3-0.4-0.5-0.9-0.8-1.3c-0.2,0.4-0.5,0.9-0.8,1.3c-0.6,0.9-1.3,1.8-2,2.6c-0.8,0.8-1.6,1.5-2.5,2.1
		c-0.9,0.6-1.8,1.1-2.7,1.4c-0.9,0.4-1.8,0.6-2.7,0.8c-0.4,0.1-0.8,0.2-1.2,0.2c-0.4,0.1-0.8,0.1-1.2,0.2c-0.8,0.1-1.4,0.1-2,0.1
		c-0.6,0-1.1,0-1.6,0c-0.9-0.1-1.4-0.1-1.4-0.1s0.5-0.1,1.3-0.2c0.4,0,0.9-0.1,1.5-0.3c0.6-0.1,1.2-0.3,1.9-0.5
		c0.4-0.1,0.7-0.2,1.1-0.4c0.4-0.1,0.7-0.3,1.1-0.4c0.7-0.3,1.5-0.7,2.2-1.2c0.7-0.5,1.4-1,2-1.7c0.6-0.6,1.2-1.3,1.7-2
		c1.9-3,2.4-6.6,2.3-9.2c0-0.9-0.1-1.6-0.1-2.2c-0.7-0.1-1.4-0.3-2-0.5c-1.6-0.4-3-1.1-4.4-1.8c-0.4-0.2-0.8-0.5-1.2-0.7
		c-2.7-1.3-5.6-3.5-8.1-6.9c-0.6,0.4-1.4,1.1-2.3,1.9c-1,0.8-2.1,1.9-3.2,3.1c-0.6,0.6-1.1,1.2-1.7,1.9c-0.5,0.7-1.1,1.3-1.6,2
		c-0.5,0.7-1,1.4-1.5,2.2c-0.4,0.7-0.9,1.5-1.3,2.2c-0.4,0.7-0.7,1.5-1,2.2c-0.3,0.7-0.6,1.4-0.7,2c-0.2,0.6-0.3,1.2-0.5,1.8
		c-0.1,0.5-0.2,1-0.2,1.4c-0.1,0.8-0.2,1.2-0.2,1.2s0-0.5-0.1-1.3c0-0.4,0-0.9-0.1-1.5c0-0.6,0.1-1.2,0.1-1.9c0-0.7,0.2-1.4,0.3-2.2
		c0.1-0.8,0.3-1.6,0.6-2.5c0.2-0.9,0.5-1.7,0.8-2.6c0.3-0.9,0.7-1.7,1.1-2.6c0.4-0.9,0.8-1.7,1.3-2.5c0.5-0.8,0.9-1.6,1.4-2.4
		c0.1-0.1,0.1-0.2,0.2-0.3c-1.2,0.2-2.4,0.4-3.6,0.5c-1,0.1-2,0.1-2.9,0.1c-22.4,0-23.2-21.8-23.5-30c0-0.9-0.1-1.7-0.1-2.3
		c-0.5-5.9-1.4-6.9-3.7-8.2c-0.1-0.1-0.2-0.2-0.4-0.2c0.2,1.9,0,3.7,0,3.7l0.5,20.4l0.5,20.4c0,0,3,19.3-13.7,0.4l-0.5-20.4
		l-0.5-20.4c3-3.8,5.3-6.1,7.2-7.5c1-4.2,3.3-11,9-17.7c8.1-9.6,25-21.1,59.2-21.1c18.9,0,44.5,3.7,59.2,21.1c5.8,6.9,8.1,13.8,9,18
		c1.8,1.4,4,3.6,6.8,7.2L316.8,225.8z M323.5,243.2l0.9-35.7c0,0,8.7,5.1,8.4,17C332.5,236.4,323.5,243.2,323.5,243.2z"/>
</g>
</svg>
